<mxfile host="65bd71144e">
    <diagram id="T9uuaTeBy4bPSP1g8a4x" name="Page-1">
        <mxGraphModel dx="1829" dy="611" grid="1" gridSize="10" guides="1" tooltips="1" connect="1" arrows="1" fold="1" page="1" pageScale="1" pageWidth="827" pageHeight="1169" background="#FFFFFF" math="0" shadow="0">
            <root>
                <mxCell id="0"/>
                <mxCell id="1" parent="0"/>
                <mxCell id="315" value="" style="endArrow=none;html=1;rounded=0;" edge="1" parent="1">
                    <mxGeometry width="50" height="50" relative="1" as="geometry">
                        <mxPoint x="90" y="80" as="sourcePoint"/>
                        <mxPoint x="590" y="80" as="targetPoint"/>
                        <Array as="points">
                            <mxPoint x="90" y="80"/>
                            <mxPoint x="110" y="80"/>
                            <mxPoint x="120" y="120"/>
                            <mxPoint x="160" y="280"/>
                            <mxPoint x="200" y="280"/>
                            <mxPoint x="240" y="120"/>
                            <mxPoint x="280" y="120"/>
                            <mxPoint x="320" y="280"/>
                            <mxPoint x="360" y="280"/>
                            <mxPoint x="400" y="120"/>
                            <mxPoint x="440" y="120"/>
                            <mxPoint x="480" y="280"/>
                            <mxPoint x="520" y="280"/>
                            <mxPoint x="560" y="120"/>
                            <mxPoint x="570" y="80"/>
                        </Array>
                    </mxGeometry>
                </mxCell>
                <mxCell id="317" value="Possible Deployment" style="rounded=0;whiteSpace=wrap;html=1;strokeColor=none;fillColor=none;" vertex="1" parent="1">
                    <mxGeometry x="220" y="30" width="80" height="40" as="geometry"/>
                </mxCell>
                <mxCell id="319" value="" style="endArrow=none;html=1;rounded=0;dashed=1;" edge="1" parent="1">
                    <mxGeometry width="50" height="50" relative="1" as="geometry">
                        <mxPoint x="240" y="120" as="sourcePoint"/>
                        <mxPoint x="280" y="120" as="targetPoint"/>
                        <Array as="points">
                            <mxPoint x="250" y="80"/>
                            <mxPoint x="270" y="80"/>
                        </Array>
                    </mxGeometry>
                </mxCell>
                <mxCell id="321" value="" style="endArrow=none;html=1;rounded=0;dashed=1;" edge="1" parent="1">
                    <mxGeometry width="50" height="50" relative="1" as="geometry">
                        <mxPoint x="400" y="120" as="sourcePoint"/>
                        <mxPoint x="440" y="120" as="targetPoint"/>
                        <Array as="points">
                            <mxPoint x="410" y="80"/>
                            <mxPoint x="430" y="80"/>
                        </Array>
                    </mxGeometry>
                </mxCell>
                <mxCell id="322" value="Possible Deployment" style="rounded=0;whiteSpace=wrap;html=1;strokeColor=none;fillColor=none;" vertex="1" parent="1">
                    <mxGeometry x="380" y="30" width="80" height="40" as="geometry"/>
                </mxCell>
                <mxCell id="323" value="System Test" style="rounded=0;whiteSpace=wrap;html=1;strokeColor=none;fillColor=none;align=right;" vertex="1" parent="1">
                    <mxGeometry x="150" y="100" width="80" height="20" as="geometry"/>
                </mxCell>
                <mxCell id="325" value="Update System Requirements" style="rounded=0;whiteSpace=wrap;html=1;strokeColor=none;fillColor=none;align=left;" vertex="1" parent="1">
                    <mxGeometry x="290" y="100" width="80" height="20" as="geometry"/>
                </mxCell>
                <mxCell id="326" value="PDR" style="triangle;whiteSpace=wrap;html=1;fillColor=#dae8fc;rotation=0;strokeColor=#6c8ebf;direction=north;" vertex="1" parent="1">
                    <mxGeometry x="120" y="160" width="26.66" height="19.99" as="geometry"/>
                </mxCell>
                <mxCell id="327" value="" style="triangle;whiteSpace=wrap;html=1;fillColor=#dae8fc;rotation=0;strokeColor=#6c8ebf;direction=north;" vertex="1" parent="1">
                    <mxGeometry x="230" y="110" width="26.66" height="19.99" as="geometry"/>
                </mxCell>
                <mxCell id="328" value="" style="triangle;whiteSpace=wrap;html=1;fillColor=#dae8fc;rotation=0;strokeColor=#6c8ebf;direction=north;" vertex="1" parent="1">
                    <mxGeometry x="263.34" y="110" width="26.66" height="19.99" as="geometry"/>
                </mxCell>
                <mxCell id="329" value="CDR" style="triangle;whiteSpace=wrap;html=1;fillColor=#dae8fc;rotation=0;strokeColor=#6c8ebf;direction=north;" vertex="1" parent="1">
                    <mxGeometry x="140" y="219.99" width="26.66" height="19.99" as="geometry"/>
                </mxCell>
                <mxCell id="331" value="CDR" style="triangle;whiteSpace=wrap;html=1;fillColor=#dae8fc;rotation=0;strokeColor=#6c8ebf;direction=north;" vertex="1" parent="1">
                    <mxGeometry x="300" y="219.99" width="26.67" height="20" as="geometry"/>
                </mxCell>
                <mxCell id="332" value="PDR" style="triangle;whiteSpace=wrap;html=1;fillColor=#dae8fc;rotation=0;strokeColor=#6c8ebf;direction=north;" vertex="1" parent="1">
                    <mxGeometry x="280" y="159.99" width="26.67" height="20" as="geometry"/>
                </mxCell>
                <mxCell id="333" value="CDR" style="triangle;whiteSpace=wrap;html=1;fillColor=#dae8fc;rotation=0;strokeColor=#6c8ebf;direction=north;" vertex="1" parent="1">
                    <mxGeometry x="459.99999999999994" y="219.99" width="26.67" height="20" as="geometry"/>
                </mxCell>
                <mxCell id="334" value="PDR" style="triangle;whiteSpace=wrap;html=1;fillColor=#dae8fc;rotation=0;strokeColor=#6c8ebf;direction=north;" vertex="1" parent="1">
                    <mxGeometry x="440" y="159.99" width="26.67" height="20" as="geometry"/>
                </mxCell>
                <mxCell id="335" value="Final System Acceptance and Deployment" style="rounded=0;whiteSpace=wrap;html=1;strokeColor=none;fillColor=none;" vertex="1" parent="1">
                    <mxGeometry x="500" y="30" width="160" height="40" as="geometry"/>
                </mxCell>
                <mxCell id="336" value="" style="triangle;whiteSpace=wrap;html=1;fillColor=#dae8fc;rotation=0;strokeColor=#6c8ebf;direction=north;" vertex="1" parent="1">
                    <mxGeometry x="387" y="110" width="26.66" height="19.99" as="geometry"/>
                </mxCell>
                <mxCell id="337" value="" style="triangle;whiteSpace=wrap;html=1;fillColor=#dae8fc;rotation=0;strokeColor=#6c8ebf;direction=north;" vertex="1" parent="1">
                    <mxGeometry x="429.99999999999994" y="110" width="26.66" height="19.99" as="geometry"/>
                </mxCell>
                <mxCell id="338" value="" style="triangle;whiteSpace=wrap;html=1;fillColor=#dae8fc;rotation=0;strokeColor=#6c8ebf;direction=north;" vertex="1" parent="1">
                    <mxGeometry x="566.67" y="70" width="26.66" height="19.99" as="geometry"/>
                </mxCell>
                <mxCell id="340" value="Code, Fabrication, Assembly" style="rounded=0;whiteSpace=wrap;html=1;fillColor=none;align=right;strokeColor=none;" vertex="1" parent="1">
                    <mxGeometry x="-30" y="270" width="170" height="20" as="geometry"/>
                </mxCell>
                <mxCell id="341" value="" style="endArrow=none;html=1;rounded=0;dashed=1;" edge="1" parent="1">
                    <mxGeometry width="50" height="50" relative="1" as="geometry">
                        <mxPoint x="160" y="280" as="sourcePoint"/>
                        <mxPoint x="140" y="280" as="targetPoint"/>
                    </mxGeometry>
                </mxCell>
            </root>
        </mxGraphModel>
    </diagram>
</mxfile>